<svg width="229" height="50" viewBox="0 0 229 50" fill="none" xmlns="http://www.w3.org/2000/svg">
<path d="M219 0H10C4.47715 0 0 4.47715 0 10V40C0 45.5228 4.47715 50 10 50H219C224.523 50 229 45.5228 229 40V10C229 4.47715 224.523 0 219 0Z" fill="#ae1443"/>
<path d="M38.517 22.9942L36.11 20.5872L34.317 22.3802L35.072 23.1352L28.417 29.7902H28.408V42.9272H30.943V30.8492L36.862 24.9342C37.4111 24.4971 38.1016 24.2772 38.8023 24.3163C39.503 24.3554 40.1649 24.6508 40.662 25.1462L38.662 23.1402L38.517 22.9942Z" fill="white"/>
<path d="M36.8651 28.512L32.3831 32.994V36.5789L36.8651 32.097C37.413 31.6607 38.102 31.4409 38.8014 31.4794C39.5007 31.5179 40.1615 31.8121 40.6581 32.3059L38.6581 30.3059L36.8651 28.512Z" fill="white"/>
<path d="M36.866 17.7551C37.4138 17.3186 38.1029 17.0986 38.8023 17.1372C39.5017 17.1757 40.1625 17.47 40.659 17.9641L38.659 15.9641L37.759 15.0641L36.859 14.1641L31.489 8.79007L29.696 6.99707L27.902 8.79007L20.902 15.7901L18.902 17.7901C19.3983 17.2965 20.0587 17.0027 20.7576 16.9645C21.4564 16.9264 22.1449 17.1465 22.692 17.5831L29.701 10.5741L35.079 15.9521L22.46 28.5711L20.666 30.3641L18.666 32.3641C19.1624 31.8699 19.8231 31.5754 20.5225 31.5367C21.2219 31.498 21.9111 31.7177 22.459 32.1541L26.99 36.6851L27.011 33.1211L24.252 30.3621L36.866 17.7551Z" fill="white"/>
<path d="M22.712 24.7401L29.695 17.7581L30.308 18.3712L32.101 16.5782L29.694 14.1711L20.921 22.9402L18.921 24.9402C19.4183 24.4476 20.0794 24.155 20.7784 24.1181C21.4774 24.0812 22.1656 24.3026 22.712 24.7401Z" fill="white"/>
<path d="M63.1948 24.1341C63.1948 24.6287 63.0782 25.0954 62.8448 25.5341C62.6115 25.9727 62.2382 26.3321 61.7248 26.6121C61.2115 26.8827 60.5535 27.0181 59.7508 27.0181H57.9868V30.9661H56.3908V21.2361H59.7508C60.4975 21.2361 61.1275 21.3667 61.6408 21.6281C62.1635 21.8801 62.5508 22.2254 62.8028 22.6641C63.0642 23.1027 63.1948 23.5927 63.1948 24.1341ZM59.7508 25.7161C60.3575 25.7161 60.8102 25.5807 61.1088 25.3101C61.4075 25.0301 61.5568 24.6381 61.5568 24.1341C61.5568 23.0701 60.9548 22.5381 59.7508 22.5381H57.9868V25.7161H59.7508ZM68.063 31.0921C67.335 31.0921 66.677 30.9287 66.089 30.6021C65.501 30.2661 65.039 29.7994 64.703 29.2021C64.367 28.5954 64.199 27.8954 64.199 27.1021C64.199 26.3181 64.3717 25.6227 64.717 25.0161C65.0623 24.4094 65.5337 23.9427 66.131 23.6161C66.7283 23.2894 67.3957 23.1261 68.133 23.1261C68.8703 23.1261 69.5377 23.2894 70.135 23.6161C70.7323 23.9427 71.2037 24.4094 71.549 25.0161C71.8943 25.6227 72.067 26.3181 72.067 27.1021C72.067 27.8861 71.8897 28.5814 71.535 29.1881C71.1803 29.7947 70.695 30.2661 70.079 30.6021C69.4723 30.9287 68.8003 31.0921 68.063 31.0921ZM68.063 29.7061C68.4737 29.7061 68.8563 29.6081 69.211 29.4121C69.575 29.2161 69.869 28.9221 70.093 28.5301C70.317 28.1381 70.429 27.6621 70.429 27.1021C70.429 26.5421 70.3217 26.0707 70.107 25.6881C69.8923 25.2961 69.6077 25.0021 69.253 24.8061C68.8983 24.6101 68.5157 24.5121 68.105 24.5121C67.6943 24.5121 67.3117 24.6101 66.957 24.8061C66.6117 25.0021 66.3363 25.2961 66.131 25.6881C65.9257 26.0707 65.823 26.5421 65.823 27.1021C65.823 27.9327 66.033 28.5767 66.453 29.0341C66.8823 29.4821 67.419 29.7061 68.063 29.7061ZM84.0047 23.2521L81.6107 30.9661H79.9307L78.3767 25.2681L76.8227 30.9661H75.1427L72.7347 23.2521H74.3587L75.9687 29.4541L77.6067 23.2521H79.2727L80.8407 29.4261L82.4367 23.2521H84.0047ZM92.2675 26.9201C92.2675 27.2094 92.2488 27.4707 92.2115 27.7041H86.3175C86.3641 28.3201 86.5928 28.8147 87.0035 29.1881C87.4141 29.5614 87.9181 29.7481 88.5155 29.7481C89.3741 29.7481 89.9808 29.3887 90.3355 28.6701H92.0575C91.8241 29.3794 91.3995 29.9627 90.7835 30.4201C90.1768 30.8681 89.4208 31.0921 88.5155 31.0921C87.7781 31.0921 87.1155 30.9287 86.5275 30.6021C85.9488 30.2661 85.4915 29.7994 85.1555 29.2021C84.8288 28.5954 84.6655 27.8954 84.6655 27.1021C84.6655 26.3087 84.8241 25.6134 85.1415 25.0161C85.4681 24.4094 85.9208 23.9427 86.4995 23.6161C87.0875 23.2894 87.7595 23.1261 88.5155 23.1261C89.2435 23.1261 89.8921 23.2847 90.4615 23.6021C91.0308 23.9194 91.4741 24.3674 91.7915 24.9461C92.1088 25.5154 92.2675 26.1734 92.2675 26.9201ZM90.6015 26.4161C90.5921 25.8281 90.3821 25.3567 89.9715 25.0021C89.5608 24.6474 89.0521 24.4701 88.4455 24.4701C87.8948 24.4701 87.4235 24.6474 87.0315 25.0021C86.6395 25.3474 86.4061 25.8187 86.3315 26.4161H90.6015ZM95.4341 24.3721C95.6674 23.9801 95.9754 23.6767 96.3581 23.4621C96.7501 23.2381 97.2121 23.1261 97.7441 23.1261V24.7781H97.3381C96.7128 24.7781 96.2368 24.9367 95.9101 25.2541C95.5928 25.5714 95.4341 26.1221 95.4341 26.9061V30.9661H93.8381V23.2521H95.4341V24.3721ZM106.281 26.9201C106.281 27.2094 106.262 27.4707 106.225 27.7041H100.331C100.378 28.3201 100.606 28.8147 101.017 29.1881C101.428 29.5614 101.932 29.7481 102.529 29.7481C103.388 29.7481 103.994 29.3887 104.349 28.6701H106.071C105.838 29.3794 105.413 29.9627 104.797 30.4201C104.19 30.8681 103.434 31.0921 102.529 31.0921C101.792 31.0921 101.129 30.9287 100.541 30.6021C99.9625 30.2661 99.5051 29.7994 99.1691 29.2021C98.8425 28.5954 98.6791 27.8954 98.6791 27.1021C98.6791 26.3087 98.8378 25.6134 99.1551 25.0161C99.4818 24.4094 99.9345 23.9427 100.513 23.6161C101.101 23.2894 101.773 23.1261 102.529 23.1261C103.257 23.1261 103.906 23.2847 104.475 23.6021C105.044 23.9194 105.488 24.3674 105.805 24.9461C106.122 25.5154 106.281 26.1734 106.281 26.9201ZM104.615 26.4161C104.606 25.8281 104.396 25.3567 103.985 25.0021C103.574 24.6474 103.066 24.4701 102.459 24.4701C101.908 24.4701 101.437 24.6474 101.045 25.0021C100.653 25.3474 100.42 25.8187 100.345 26.4161H104.615ZM107.32 27.0741C107.32 26.2994 107.478 25.6134 107.796 25.0161C108.122 24.4187 108.561 23.9567 109.112 23.6301C109.672 23.2941 110.292 23.1261 110.974 23.1261C111.478 23.1261 111.972 23.2381 112.458 23.4621C112.952 23.6767 113.344 23.9661 113.634 24.3301V20.6061H115.244V30.9661H113.634V29.8041C113.372 30.1774 113.008 30.4854 112.542 30.7281C112.084 30.9707 111.557 31.0921 110.96 31.0921C110.288 31.0921 109.672 30.9241 109.112 30.5881C108.561 30.2427 108.122 29.7667 107.796 29.1601C107.478 28.5441 107.32 27.8487 107.32 27.0741ZM113.634 27.1021C113.634 26.5701 113.522 26.1081 113.298 25.7161C113.083 25.3241 112.798 25.0254 112.444 24.8201C112.089 24.6147 111.706 24.5121 111.296 24.5121C110.885 24.5121 110.502 24.6147 110.148 24.8201C109.793 25.0161 109.504 25.3101 109.28 25.7021C109.065 26.0847 108.958 26.5421 108.958 27.0741C108.958 27.6061 109.065 28.0727 109.28 28.4741C109.504 28.8754 109.793 29.1834 110.148 29.3981C110.512 29.6034 110.894 29.7061 111.296 29.7061C111.706 29.7061 112.089 29.6034 112.444 29.3981C112.798 29.1927 113.083 28.8941 113.298 28.5021C113.522 28.1007 113.634 27.6341 113.634 27.1021ZM122.573 24.4001C122.843 24.0267 123.212 23.7234 123.679 23.4901C124.155 23.2474 124.682 23.1261 125.261 23.1261C125.942 23.1261 126.558 23.2894 127.109 23.6161C127.659 23.9427 128.093 24.4094 128.411 25.0161C128.728 25.6134 128.887 26.2994 128.887 27.0741C128.887 27.8487 128.728 28.5441 128.411 29.1601C128.093 29.7667 127.655 30.2427 127.095 30.5881C126.544 30.9241 125.933 31.0921 125.261 31.0921C124.663 31.0921 124.131 30.9754 123.665 30.7421C123.207 30.5087 122.843 30.2101 122.573 29.8461V30.9661H120.977V20.6061H122.573V24.4001ZM127.263 27.0741C127.263 26.5421 127.151 26.0847 126.927 25.7021C126.712 25.3101 126.423 25.0161 126.059 24.8201C125.704 24.6147 125.321 24.5121 124.911 24.5121C124.509 24.5121 124.127 24.6147 123.763 24.8201C123.408 25.0254 123.119 25.3241 122.895 25.7161C122.68 26.1081 122.573 26.5701 122.573 27.1021C122.573 27.6341 122.68 28.1007 122.895 28.5021C123.119 28.8941 123.408 29.1927 123.763 29.3981C124.127 29.6034 124.509 29.7061 124.911 29.7061C125.321 29.7061 125.704 29.6034 126.059 29.3981C126.423 29.1834 126.712 28.8754 126.927 28.4741C127.151 28.0727 127.263 27.6061 127.263 27.0741ZM137.409 23.2521L132.677 34.5921H131.025L132.593 30.8401L129.555 23.2521H131.333L133.503 29.1321L135.757 23.2521H137.409ZM143.79 29.5801H148.312V30.9661H141.9V29.7201L146.408 22.6221H141.9V21.2361H148.312V22.4821L143.79 29.5801ZM151.653 21.2361V30.9661H150.057V21.2361H151.653ZM155.344 22.5241V25.3801H158.704V26.6821H155.344V29.6641H159.124V30.9661H153.748V21.2221H159.124V22.5241H155.344ZM171.531 24.1341C171.531 24.6287 171.414 25.0954 171.181 25.5341C170.947 25.9727 170.574 26.3321 170.061 26.6121C169.547 26.8827 168.889 27.0181 168.087 27.0181H166.323V30.9661H164.727V21.2361H168.087C168.833 21.2361 169.463 21.3667 169.977 21.6281C170.499 21.8801 170.887 22.2254 171.139 22.6641C171.4 23.1027 171.531 23.5927 171.531 24.1341ZM168.087 25.7161C168.693 25.7161 169.146 25.5807 169.445 25.3101C169.743 25.0301 169.893 24.6381 169.893 24.1341C169.893 23.0701 169.291 22.5381 168.087 22.5381H166.323V25.7161H168.087ZM174.649 21.2361V30.9661H173.053V21.2361H174.649ZM178.34 22.5241V25.3801H181.7V26.6821H178.34V29.6641H182.12V30.9661H176.744V21.2221H182.12V22.5241H178.34ZM189.319 29.6781H192.609V30.9661H187.723V21.2361H189.319V29.6781ZM195.54 29.6781H198.83V30.9661H193.944V21.2361H195.54V29.6781ZM199.632 26.0801C199.632 25.1281 199.852 24.2741 200.29 23.5181C200.738 22.7621 201.34 22.1741 202.096 21.7541C202.862 21.3247 203.697 21.1101 204.602 21.1101C205.638 21.1101 206.558 21.3667 207.36 21.8801C208.172 22.3841 208.76 23.1027 209.124 24.0361H207.206C206.954 23.5227 206.604 23.1401 206.156 22.8881C205.708 22.6361 205.19 22.5101 204.602 22.5101C203.958 22.5101 203.384 22.6547 202.88 22.9441C202.376 23.2334 201.98 23.6487 201.69 24.1901C201.41 24.7314 201.27 25.3614 201.27 26.0801C201.27 26.7987 201.41 27.4287 201.69 27.9701C201.98 28.5114 202.376 28.9314 202.88 29.2301C203.384 29.5194 203.958 29.6641 204.602 29.6641C205.19 29.6641 205.708 29.5381 206.156 29.2861C206.604 29.0341 206.954 28.6514 207.206 28.1381H209.124C208.76 29.0714 208.172 29.7901 207.36 30.2941C206.558 30.7981 205.638 31.0501 204.602 31.0501C203.688 31.0501 202.852 30.8401 202.096 30.4201C201.34 29.9907 200.738 29.3981 200.29 28.6421C199.852 27.8861 199.632 27.0321 199.632 26.0801Z" fill="white"/>
</svg>
